<?xml version="1.0" encoding="UTF-8" standalone="no"?>
<!-- Generator: Adobe Illustrator 20.1.0, SVG Export Plug-In . SVG Version: 6.00 Build 0)  -->

<svg
   xmlns:dc="http://purl.org/dc/elements/1.1/"
   xmlns:cc="http://creativecommons.org/ns#"
   xmlns:rdf="http://www.w3.org/1999/02/22-rdf-syntax-ns#"
   xmlns:svg="http://www.w3.org/2000/svg"
   xmlns="http://www.w3.org/2000/svg"
   xmlns:sodipodi="http://sodipodi.sourceforge.net/DTD/sodipodi-0.dtd"
   xmlns:inkscape="http://www.inkscape.org/namespaces/inkscape"
   version="1.1"
   id="Layer_1"
   x="0px"
   y="0px"
   viewBox="0 0 99.2 99.2"
   style="enable-background:new 0 0 99.2 99.2;"
   xml:space="preserve"
   sodipodi:docname="logo.svg"
   inkscape:version="0.92.2 2405546, 2018-03-11"><metadata
   id="metadata3783"><rdf:RDF><cc:Work
       rdf:about=""><dc:format>image/svg+xml</dc:format><dc:type
         rdf:resource="http://purl.org/dc/dcmitype/StillImage" /><dc:title></dc:title></cc:Work></rdf:RDF></metadata><defs
   id="defs3781">
	
	
</defs><sodipodi:namedview
   pagecolor="#ffffff"
   bordercolor="#666666"
   borderopacity="1"
   objecttolerance="10"
   gridtolerance="10"
   guidetolerance="10"
   inkscape:pageopacity="0"
   inkscape:pageshadow="2"
   inkscape:window-width="1920"
   inkscape:window-height="1008"
   id="namedview3779"
   showgrid="false"
   inkscape:zoom="4"
   inkscape:cx="19.960838"
   inkscape:cy="79.609863"
   inkscape:window-x="0"
   inkscape:window-y="0"
   inkscape:window-maximized="1"
   inkscape:current-layer="Layer_1" />
<style
   type="text/css"
   id="style3768">
	.st0{fill:#FFFFFF;}
</style>
<g
   id="g3774"
   style="fill:#000000;fill-opacity:1">
		<path
   inkscape:connector-curvature="0"
   id="path3772"
   d="m 49.8,9.8 c -22.1,0 -40,17.9 -40,40 0,22.1 17.9,40 40,40 22.1,0 40,-17.9 40,-40 0,-22.1 -17.9,-40 -40,-40 z m -15,55.8 c -2.4,-2.4 -4.3,-4.2 -5.4,-5.4 v -13.5 -8 h 1.1 4.3 z M 49.7,40.7 c 0,-2.8 2.3,-5.1 5.1,-5.1 2.8,0 5.1,2.3 5.1,5.1 0,2.8 -2.3,5.1 -5.1,5.1 -2.9,0.1 -5.1,-2.2 -5.1,-5.1 z m 19.2,8 c -1.4,2.5 -3.2,4.4 -5.5,5.8 -1.3,0.8 -2.7,1.5 -4,1.9 -1.5,0.4 -3,0.6 -4.5,0.6 v -4.2 -1.4 c 2.7,-0.1 5.2,-1 7.4,-3.1 2.2,-2.1 3.3,-4.6 3.3,-7.6 0,-3 -1,-5.5 -3.1,-7.6 C 60.4,31 57.9,30 54.9,30 c -3,0 -5.6,1 -7.6,3.1 -2.1,2.1 -3.1,4.6 -3.1,7.6 v 5.4 6.1 11.9 9.9 C 43,72.8 41.1,71 38.8,68.7 V 58.2 40.7 c 0,-1.5 0.2,-3 0.6,-4.4 0.4,-1.5 1,-2.8 1.8,-4 1.5,-2.3 3.3,-4.1 5.7,-5.6 2.4,-1.4 5.1,-2 8,-2 1.5,0 3.1,0.2 4.5,0.6 1.5,0.4 2.7,1 4,1.8 2.3,1.5 4.1,3.3 5.5,5.7 1.5,2.4 2.1,5.1 2.1,8 0,2.8 -0.7,5.5 -2.1,7.9 z"
   style="fill:#000000;fill-opacity:1" />
	</g>
<path
   style="fill:none;stroke:none;stroke-width:1px;stroke-linecap:butt;stroke-linejoin:miter;stroke-opacity:1"
   d="m -86.10039,123.2 29.237693,29.23769 H -4.75 L -47.625,142.45 -80.7,101.7 h -5.40039 z"
   id="path3857"
   inkscape:connector-curvature="0" /><path
   style="fill:#ffffff"
   d="m 54.900391,24.699997 c -2.9,0 -5.6,0.6 -8,2 -2.4,1.5 -4.201172,3.301562 -5.701172,5.601562 -0.8,1.2 -1.398828,2.5 -1.798828,4 -0.4,1.4 -0.59961,2.898438 -0.59961,4.398438 v 17.5 10.5 c 2.3,2.3 4.198438,4.100781 5.398438,5.300781 v -9.900391 -11.90039 -6.09961 -5.40039 c 0,-3 1.001562,-5.49961 3.101562,-7.59961 2,-2.1 4.59961,-3.099609 7.59961,-3.099609 3,0 5.499609,0.999609 7.599609,3.099609 2.1,2.1 3.099609,4.59961 3.099609,7.59961 0,3 -1.098828,5.501562 -3.298828,7.601562 -2.2,2.1 -4.70039,2.99961 -7.40039,3.09961 v 1.40039 4.199219 c 1.5,0 3,-0.199609 4.5,-0.599609 1.3,-0.4 2.7,-1.100391 4,-1.900391 2.3,-1.4 4.1,-3.300781 5.5,-5.800781 1.4,-2.4 2.099609,-5.098438 2.099609,-7.898438 0,-2.9 -0.599609,-5.6 -2.099609,-8 -1.4,-2.4 -3.2,-4.201172 -5.5,-5.701172 -1.3,-0.8 -2.5,-1.398828 -4,-1.798828 -1.4,-0.4 -3,-0.601562 -4.5,-0.601562 z m -0.09961,10.90039 c -2.8,0 -5.101562,2.29961 -5.101562,5.09961 0,2.9 2.201562,5.201562 5.101562,5.101562 2.8,0 5.09961,-2.301562 5.09961,-5.101562 0,-2.8 -2.29961,-5.09961 -5.09961,-5.09961 z m -25.40039,3.09961 v 8 13.5 c 1.1,1.2 3.00039,3.00039 5.40039,5.40039 V 38.699997 H 30.5 Z"
   id="rect3819-7"
   inkscape:connector-curvature="0"
   sodipodi:nodetypes="scccsccccccscssssccccccscccssscssccccccc" /></svg>